<svg xmlns="http://www.w3.org/2000/svg" width="743pt" height="206pt" viewBox="0 0 743 206" version="1.1"><style>.style0{opacity:	1;fill:	#ccdbec;}.style1{opacity:	1;fill:	#97aec7;}.style2{opacity:	1;fill:	#6e859d;}</style><g><path d=" M 650.5 37.5 C 659.7 27.3 673.2 21.1 687 21.2 C 702 20.9 716.8 28.1 726.1 39.9 C 733.1 48.6 737.1 59.8 736.8 71 C 737 87.6 727.7 103.9 713.5 112.5 C 696.9 123.2 674 122.3 658.1 110.6 C 649.5 104.3 643 95.3 639.8 85.1 C 638.6 79.8 636.9 74.5 637.3 69 C 638.3 57.5 642.5 46 650.5 37.5 Z" class="style0"/></g><g><path d=" M 402.6 41.8 C 408.3 42 414.1 42 419.9 41.8 C 420.3 59.5 420.4 77.2 419.2 94.9 C 422.3 92.1 425.2 88.9 428.9 86.8 C 440 80.2 453.6 79.5 466.1 81 C 477.9 82.6 489.4 88.8 495.9 99.1 C 503.6 110.8 504.4 125.5 503.1 139 C 501.7 151.5 495.8 164 485.1 171.2 C 472 180.1 454.8 180.9 439.8 177.2 C 431.8 175.2 424.8 170.6 419 164.8 C 417.5 168.9 416.3 173.2 415.1 177.5 C 410.9 177.5 406.7 177.5 402.5 177.5 C 402.6 132.3 402.4 87 402.6 41.8 M 444.1 93.2 C 439.2 94 434.4 95.6 430.5 98.6 C 425.4 102.5 422.6 108.7 421.4 114.9 C 419.6 123.8 419.5 133.1 421 142.1 C 422.1 149 424.8 156.1 430.5 160.6 C 437.5 166.1 446.9 167.1 455.6 167 C 463.5 166.8 471.8 164.2 477 157.9 C 484.1 149.8 485.5 138.4 485.5 128 C 485.2 117.7 483.2 106.1 475 99 C 466.4 92.1 454.5 91.7 444.1 93.2 Z" class="style1"/><path d=" M 42 49 C 57.2 47 73 49.2 87.1 55.2 C 85.7 59.7 84 64.1 82.4 68.5 C 71.1 63.5 58.6 60.9 46.3 62 C 39.3 62.7 31.8 65.9 28.5 72.6 C 24.7 80.9 26.9 92.1 34.8 97.3 C 49.1 107.2 68.1 108.6 81.3 120.7 C 89.6 128.2 91.7 140.5 89.7 151.1 C 88.3 159.6 82.8 167.1 75.5 171.6 C 65.9 177.8 54.2 179.3 43 179.3 C 31.8 178.8 20.2 178.2 9.9 173.4 C 10.1 168.6 10 163.8 10 159 C 21.4 163.6 33.7 166.1 46 166.2 C 53.6 165.8 61.9 165.1 68.1 160.1 C 76.7 153.6 77.6 139.4 70.5 131.6 C 64.3 125.5 55.9 122.6 48 119.5 C 37.7 115.9 27 111.7 19.4 103.5 C 11.6 94.6 9.8 81.3 13.2 70.2 C 17.1 57.9 29.8 50.7 42 49 Z" class="style1"/><path d=" M 110.7 95.2 C 117 85.5 128.6 80.2 140 80.2 C 149.5 79.9 159.7 81.4 167 87.9 C 173.8 93.8 176 103.3 176.3 112 C 176.4 133.8 176.3 155.7 176.4 177.5 C 171.5 177.4 166.6 177.5 161.8 177.5 C 161.8 156.7 161.8 135.8 161.8 115 C 161.7 108.2 160.1 100.8 154.4 96.5 C 148.9 92.4 141.6 92.2 135 92.7 C 128 93.4 120.6 96.3 116.5 102.4 C 111.6 109.9 110.9 119.2 111.1 127.9 C 111.1 144.4 111.1 160.9 111.1 177.4 C 106.2 177.5 101.2 177.5 96.2 177.4 C 96.4 145.6 96.1 113.8 96.3 81.9 C 100.2 82.3 104.1 82 107.9 82.1 C 109.5 86.2 109.6 90.9 110.7 95.2 Z" class="style1"/><path d=" M 216.7 81 C 226.7 79.5 237.5 79.7 246.8 84.2 C 257.8 89.4 265.6 100.2 268.6 111.9 C 270.9 119.7 270.9 128 270.6 136 C 269.8 147.6 266 159.4 257.5 167.6 C 251.3 174 242.7 177.7 233.9 178.7 C 220.2 180.8 204.9 177 195.4 166.6 C 185.3 155.8 182.2 140.3 182.8 126 C 183.3 114.8 186 103.2 193.4 94.4 C 199.1 87.2 207.7 82.6 216.7 81 M 217.4 93.7 C 211.3 95.3 206.1 99.6 203.1 105.1 C 198.7 112.9 198 122.1 197.9 130.9 C 198.3 140.8 199.8 151.6 206.8 159.2 C 212.8 165.9 222.5 167.9 231.2 166.7 C 238.8 166 246.2 161.6 250 154.8 C 255.5 145.3 256 133.8 255.3 123 C 254.6 113.8 251.7 103.8 244.1 97.9 C 236.7 92.1 226.3 91.4 217.4 93.7 Z" class="style1"/><path d=" M 516.6 88.6 C 531.9 81.5 549.3 79.2 566 80.8 C 574.2 81.8 582.9 84.2 588.8 90.3 C 593.7 95.5 595.6 102.9 595.8 109.9 C 595.9 132.4 595.8 154.9 595.9 177.4 C 591.6 177.5 587.2 177.5 582.9 177.5 C 581.7 173 580.8 168.5 579.5 164 L 579 163.9 C 573 169.6 566.4 175.2 558.1 177.2 C 547.3 179.8 535.9 180.1 525 177.4 C 517.2 175.3 509.6 170.5 506.2 162.9 C 502.7 154.9 502.7 145 507.7 137.6 C 512.6 130.5 520.8 126.7 528.9 124.4 C 545.1 120 562.1 120.6 578.7 120.1 C 578.8 113.7 579.3 106.8 575.8 101.1 C 572.8 95.8 566.7 93.4 560.9 92.7 C 547.6 91.1 534.3 94.8 522 99.7 C 520.3 96 518.5 92.2 516.6 88.6 M 542.5 132.8 C 536.9 134 531 135.6 526.7 139.7 C 520.2 146 520.5 158.6 528.6 163.5 C 536.1 168.2 545.5 167.7 553.9 166.3 C 563 164.8 572.2 159.7 576 151 C 579.1 144.6 578.4 137.3 578.5 130.4 C 566.5 130.9 554.4 130.7 542.5 132.8 Z" class="style1"/><path d=" M 264.9 82.1 C 269.9 82.2 275 82 280.1 82.2 C 283.7 94.3 286.5 106.7 289.8 119 C 293.5 133.3 297.4 147.7 300.2 162.3 C 302.4 152.8 304.9 143.2 308.1 133.9 C 313.6 116.7 319.2 99.5 324.6 82.2 C 330 82.1 335.4 82.1 340.7 82.2 C 347.1 102.8 353.6 123.4 360.1 144.1 C 362 150 363.1 156.1 364.7 162.1 C 366.5 151.9 369.4 142 371.9 131.9 C 376.2 115.3 380.6 98.7 384.9 82.1 C 390 82.1 395.1 82.1 400.1 82.2 C 391.4 113.9 382.4 145.6 373.8 177.4 C 368 177.3 361.9 178 356.3 177.1 C 350.2 158.1 344.4 139.1 338.4 120.1 C 336 112.8 334.9 105.1 332.1 98 C 330.2 106 328.4 114.2 325.8 122.1 C 319.9 140.5 313.8 158.9 307.9 177.4 C 302.3 177.5 296.6 177.5 290.9 177.4 C 282.3 145.7 273.5 113.9 264.9 82.1 Z" class="style1"/></g><g><path d=" M 581.9 50.5 C 587.7 49.1 593.5 47.3 599.3 46 C 610.8 88.7 622 131.4 633.8 173.9 C 628 175.4 622.2 176.8 616.5 178.7 C 604.8 136 593.6 93.2 581.9 50.5 Z" class="style2"/><path d=" M 605 66.8 C 609.8 63.2 614.8 60 619.5 56.3 C 626.3 65.9 633.4 75.3 639.8 85.1 C 643 95.3 649.5 104.3 658.1 110.6 C 671.1 128.4 683.5 146.6 696.6 164.4 C 691.8 167.9 686.8 171.3 682 174.8 C 658.1 141.2 634.1 107.6 610.2 73.9 C 608.5 71.5 606.9 69.1 605 66.8 Z" class="style2"/></g></svg>